<svg width="175" height="120" viewBox="0 0 175 120" fill="none" xmlns="http://www.w3.org/2000/svg">
<mask id="path-1-outside-1" maskUnits="userSpaceOnUse" x="40.5807" y="40.49" width="92" height="70" fill="black">
<rect fill="white" x="40.5807" y="40.49" width="92" height="70"/>
<path fill-rule="evenodd" clip-rule="evenodd" d="M124.85 47.9746H80.9729C80.9729 44.9581 78.5048 42.49 75.4883 42.49H53.5499C50.5334 42.49 48.0653 44.9581 48.0653 47.9746C45.0488 47.9746 42.5807 50.4427 42.5807 53.4592V102.821C42.5807 105.837 45.0488 108.305 48.0653 108.305H124.85C127.866 108.305 130.334 105.837 130.334 102.821V53.4592C130.334 50.4427 127.866 47.9746 124.85 47.9746ZM75.4883 59.4922H53.5499V53.4591H75.4883V59.4922ZM100.169 97.336C89.5289 97.336 80.9729 88.78 80.9729 78.1399C80.9729 67.4998 89.5289 58.9438 100.169 58.9438C110.809 58.9438 119.365 67.4998 119.365 78.1399C119.365 88.78 110.809 97.336 100.169 97.336ZM113.881 78.1399C113.881 85.7086 107.683 91.8514 100.169 91.8514C92.6551 91.8514 86.4575 85.6538 86.4575 78.1399C86.4575 70.626 92.6551 64.4284 100.169 64.4284C107.683 64.4284 113.881 70.626 113.881 78.1399Z"/>
</mask>
<path d="M80.9729 47.9746H79.3275V49.62H80.9729V47.9746ZM48.0653 47.9746V49.62H49.7107V47.9746H48.0653ZM75.4883 59.4922V61.1376H77.1337V59.4922H75.4883ZM53.5499 59.4922H51.9045V61.1376H53.5499V59.4922ZM53.5499 53.4591V51.8137H51.9045V53.4591H53.5499ZM75.4883 53.4591H77.1337V51.8137H75.4883V53.4591ZM124.85 46.3292H80.9729V49.62H124.85V46.3292ZM82.6183 47.9746C82.6183 44.0493 79.4136 40.8446 75.4883 40.8446V44.1354C77.5961 44.1354 79.3275 45.8668 79.3275 47.9746H82.6183ZM75.4883 40.8446H53.5499V44.1354H75.4883V40.8446ZM53.5499 40.8446C49.6246 40.8446 46.4199 44.0493 46.4199 47.9746H49.7107C49.7107 45.8668 51.4421 44.1354 53.5499 44.1354V40.8446ZM48.0653 46.3292C44.14 46.3292 40.9353 49.5339 40.9353 53.4592H44.2261C44.2261 51.3514 45.9575 49.62 48.0653 49.62V46.3292ZM40.9353 53.4592V102.821H44.2261V53.4592H40.9353ZM40.9353 102.821C40.9353 106.746 44.14 109.951 48.0653 109.951V106.66C45.9575 106.66 44.2261 104.928 44.2261 102.821H40.9353ZM48.0653 109.951H124.85V106.66H48.0653V109.951ZM124.85 109.951C128.775 109.951 131.98 106.746 131.98 102.821H128.689C128.689 104.928 126.958 106.66 124.85 106.66V109.951ZM131.98 102.821V53.4592H128.689V102.821H131.98ZM131.98 53.4592C131.98 49.5339 128.775 46.3292 124.85 46.3292V49.62C126.958 49.62 128.689 51.3514 128.689 53.4592H131.98ZM75.4883 57.8468H53.5499V61.1376H75.4883V57.8468ZM55.1953 59.4922V53.4591H51.9045V59.4922H55.1953ZM53.5499 55.1045H75.4883V51.8137H53.5499V55.1045ZM73.8429 53.4591V59.4922H77.1337V53.4591H73.8429ZM100.169 95.6907C90.4376 95.6907 82.6183 87.8713 82.6183 78.1399H79.3275C79.3275 89.6888 88.6201 98.9814 100.169 98.9814V95.6907ZM82.6183 78.1399C82.6183 68.4085 90.4376 60.5892 100.169 60.5892V57.2984C88.6201 57.2984 79.3275 66.5911 79.3275 78.1399H82.6183ZM100.169 60.5892C109.9 60.5892 117.72 68.4085 117.72 78.1399H121.01C121.01 66.5911 111.718 57.2984 100.169 57.2984V60.5892ZM117.72 78.1399C117.72 87.8713 109.9 95.6907 100.169 95.6907V98.9814C111.718 98.9814 121.01 89.6888 121.01 78.1399H117.72ZM112.235 78.1399C112.235 84.7956 106.779 90.206 100.169 90.206V93.4968C108.587 93.4968 115.526 86.6216 115.526 78.1399H112.235ZM100.169 90.206C93.5639 90.206 88.1029 84.7451 88.1029 78.1399H84.8122C84.8122 86.5625 91.7464 93.4968 100.169 93.4968V90.206ZM88.1029 78.1399C88.1029 71.5347 93.5639 66.0738 100.169 66.0738V62.783C91.7464 62.783 84.8122 69.7173 84.8122 78.1399H88.1029ZM100.169 66.0738C106.774 66.0738 112.235 71.5347 112.235 78.1399H115.526C115.526 69.7173 108.592 62.783 100.169 62.783V66.0738Z" fill="#2188FF" mask="url(#path-1-outside-1)"/>
<line x1="87.6429" y1="0.822691" x2="87.6429" y2="26.8271" stroke="#79B8FF" stroke-width="1.64538" stroke-linecap="round" stroke-linejoin="round"/>
<line x1="0.822691" y1="74.9377" x2="26.8271" y2="74.9377" stroke="#79B8FF" stroke-width="1.64538" stroke-linecap="round" stroke-linejoin="round"/>
<line x1="147.367" y1="74.9377" x2="173.371" y2="74.9377" stroke="#79B8FF" stroke-width="1.64538" stroke-linecap="round" stroke-linejoin="round"/>
<line x1="18.8593" y1="17.6958" x2="37.2471" y2="36.0837" stroke="#79B8FF" stroke-width="1.64538" stroke-linecap="round" stroke-linejoin="round"/>
<line x1="136.59" y1="36.0839" x2="154.978" y2="17.696" stroke="#79B8FF" stroke-width="1.64538" stroke-linecap="round" stroke-linejoin="round"/>
</svg>
